<svg width="118" height="40" viewBox="0 0 118 40" fill="none" xmlns="http://www.w3.org/2000/svg">
<path d="M35.79 30.39C35.445 30.755 35.0255 31.0415 34.56 31.23L30.92 32.69L19.53 37.24L15.53 38.82C14.6479 39.1685 13.6638 39.1537 12.7925 38.779C11.9213 38.4043 11.2337 37.7 10.88 36.82L10.71 36.39C10.6977 36.3578 10.6977 36.3222 10.71 36.29L6.45002 26L4.63002 21.58L0.310016 11.11C-0.0763083 10.1977 -0.0999933 9.1724 0.243793 8.24325C0.587579 7.31409 1.27293 6.55112 2.16002 6.11L2.30002 6L2.72002 5.84L2.93002 5.75L6.00002 4.55L17.43 0L23.26 14.14L25.08 18.54L29.44 29.09C29.4357 29.1098 29.4357 29.1302 29.44 29.15C29.7412 29.8528 30.2417 30.4518 30.8798 30.8731C31.5179 31.2943 32.2654 31.5192 33.03 31.52C33.5521 31.5168 34.0684 31.4115 34.55 31.21C35.01 31.0147 35.4302 30.7368 35.79 30.39Z" fill="url(#paint0_linear_75_143)"/>
<path d="M37 27.6C36.9978 28.222 36.8506 28.8349 36.57 29.39C36.49 29.52 36.42 29.66 36.33 29.79C36.24 29.92 36.21 29.96 36.15 30.03C36.0506 30.1593 35.9402 30.2798 35.82 30.39C35.4662 30.7348 35.0529 31.0126 34.6 31.21C34.1184 31.4115 33.6021 31.5168 33.08 31.52C32.3154 31.5192 31.5679 31.2943 30.9298 30.8731C30.2917 30.4518 29.7911 29.8528 29.49 29.15C29.4857 29.1302 29.4857 29.1098 29.49 29.09L25.08 18.54L23.26 14.14L30.51 11.24L32.32 15.66L36.45 25.66V25.75L36.76 26.52C36.8963 26.8651 36.9773 27.2296 37 27.6Z" fill="url(#paint1_linear_75_143)"/>
<path d="M17.43 3.90004L16.18 4.42004L15.66 3.17004L14.51 3.65004L15.03 4.91004L13.78 5.43004L14.26 6.58004L15.51 6.06004L16.04 7.31004L17.19 6.83004L16.66 5.58004L17.92 5.05004L17.43 3.90004Z" fill="white"/>
<path d="M45.8 23.62H52.52V27.62H40.67V6.52002H45.8V23.62Z" fill="white"/>
<path d="M55.36 8.30004C55.079 8.04993 54.8564 7.74118 54.7078 7.3956C54.5592 7.05002 54.4882 6.67603 54.5 6.30004C54.4916 5.92451 54.5641 5.55156 54.7124 5.20648C54.8608 4.86141 55.0817 4.55227 55.36 4.30004C55.9756 3.78938 56.7502 3.50989 57.55 3.50989C58.3498 3.50989 59.1245 3.78938 59.74 4.30004C60.0165 4.55319 60.2355 4.86273 60.3821 5.20776C60.5288 5.55279 60.5997 5.92527 60.59 6.30004C60.6037 6.67535 60.5346 7.04907 60.3878 7.39471C60.2409 7.74034 60.0197 8.04943 59.74 8.30004C59.127 8.81622 58.3514 9.09929 57.55 9.09929C56.7486 9.09929 55.973 8.81622 55.36 8.30004ZM60.11 10.84V27.58H55V10.84H60.11Z" fill="white"/>
<path d="M74.06 27.58L68.96 20.58V27.58H63.83V5.38H69V17.65L74 10.84H80.33L73.33 19.24L80.33 27.58H74.06Z" fill="white"/>
<path d="M99.47 10.84L89 35.53H83.45L87.29 27L80.48 10.84H86.21L90.08 21.31L93.92 10.84H99.47Z" fill="white"/>
<path d="M101.29 14.65C101.875 13.4214 102.793 12.3819 103.94 11.65C105.064 10.9487 106.365 10.5844 107.69 10.6C108.771 10.576 109.84 10.8236 110.8 11.32C111.622 11.7625 112.312 12.4146 112.8 13.21V10.84H118V27.58H112.87V25.21C112.351 26.0089 111.635 26.66 110.79 27.1C109.83 27.5964 108.761 27.8439 107.68 27.82C106.363 27.8306 105.07 27.459 103.96 26.75C102.816 26.0144 101.899 24.9759 101.31 23.75C100.627 22.3352 100.285 20.7806 100.31 19.21C100.273 17.634 100.608 16.0715 101.29 14.65ZM111.79 16.18C111.453 15.8319 111.05 15.5551 110.604 15.366C110.159 15.177 109.679 15.0796 109.195 15.0796C108.711 15.0796 108.231 15.177 107.786 15.366C107.34 15.5551 106.937 15.8319 106.6 16.18C106.233 16.5852 105.95 17.0588 105.767 17.5735C105.583 18.0883 105.503 18.6342 105.53 19.18C105.483 20.281 105.867 21.357 106.6 22.18C106.927 22.5415 107.327 22.8292 107.773 23.0241C108.22 23.2189 108.703 23.3164 109.19 23.31C109.677 23.3178 110.16 23.223 110.608 23.0318C111.056 22.8405 111.459 22.5571 111.79 22.2C112.524 21.3782 112.905 20.3005 112.85 19.2C112.91 18.0927 112.529 17.0067 111.79 16.18Z" fill="white"/>
<defs>
<linearGradient id="paint0_linear_75_143" x1="2.55002" y1="3.91" x2="28.13" y2="36.1" gradientUnits="userSpaceOnUse">
<stop stop-color="#86C8AF"/>
<stop offset="0.32" stop-color="#5EB49D"/>
<stop offset="0.8" stop-color="#18937F"/>
</linearGradient>
<linearGradient id="paint1_linear_75_143" x1="20.61" y1="12.3" x2="41.04" y2="30.06" gradientUnits="userSpaceOnUse">
<stop stop-color="#86C8AF"/>
<stop offset="0.24" stop-color="#59AD96"/>
<stop offset="0.48" stop-color="#339780"/>
<stop offset="0.67" stop-color="#1C8973"/>
<stop offset="0.79" stop-color="#13846E"/>
</linearGradient>
</defs>
</svg>
